PathFileType	4	(X/Y/Z)	45_1_tpose_p0_0-219_filt_butterworth.trc
DataRate	CameraRate	NumFrames	NumMarkers	Units	OrigDataRate	OrigDataStartFrame	OrigNumFrames
60.0	60.0	6	27	m	60.0	27	219
Frame#	Time	RHip			RKnee			RAnkle			RBigToe			RSmallToe			RHeel			LHip			LKnee			LAnkle			LBigToe			LSmallToe			LHeel			Neck			Head			Nose			RShoulder			RElbow			RWrist			RThumb			RIndex			RPinky			LShoulder			LElbow			LWrist			LThumb			LIndex			LPinky			
		X1	Y1	Z1	X2	Y2	Z2	X3	Y3	Z3	X4	Y4	Z4	X5	Y5	Z5	X6	Y6	Z6	X7	Y7	Z7	X8	Y8	Z8	X9	Y9	Z9	X10	Y10	Z10	X11	Y11	Z11	X12	Y12	Z12	X13	Y13	Z13	X14	Y14	Z14	X15	Y15	Z15	X16	Y16	Z16	X17	Y17	Z17	X18	Y18	Z18	X19	Y19	Z19	X20	Y20	Z20	X21	Y21	Z21	X22	Y22	Z22	X23	Y23	Z23	X24	Y24	Z24	X25	Y25	Z25	X26	Y26	Z26	X27	Y27	Z27	
27	0.45	0.5472044458196761	0.6359810022860852	0.773605702982775	0.5556965646033958	0.17468413617932055	0.7732541338254282	0.5944064572120298	-0.27871090148882033	0.7531550162660104	0.5919944865563922	-0.2939182460351064	0.6044792924767192	0.652095784783495	-0.2950934365103173	0.6247909593016062	0.5727590810685254	-0.3684246424891091	0.8189153167491289	0.3137731028794241	0.597511439190013	0.8010430286363122	0.3775914169792368	0.14790919627357435	0.7891432060680148	0.40381119691398537	-0.31273888134853367	0.7851709334143822	0.44994527025644304	-0.31353604174193944	0.6118318976965671	0.38337901375858996	-0.3316057305917033	0.6458824281142279	0.4259872743662288	-0.3794482070426363	0.8159566355912387	0.39520439385779693	1.2042648295876877	0.8143367078369803	0.37615760417048894	1.4584577539419994	0.8267564754580483	0.4085963166092459	1.3448584170475495	0.709909503128843	0.5866103109370554	1.1488278922847064	0.8176537155078211	0.8461416621758887	1.137536727315477	0.8332483615684677	1.0976639309154128	1.1408084507800045	0.8485547882052639	1.2403194564744726	1.1250973944585223	0.7936333134386115	1.2563289237432564	1.114974889154979	0.7973562578261104	1.2255492849247416	1.0977721635919706	0.8416382701221493	0.2065569489332493	1.1191892118670854	0.8021778737809098	-0.033163182320829585	1.0805449191489553	0.7905246476500954	-0.2976147943525329	1.1137359801312963	0.7149701567612167	-0.38668073265924163	1.0802777982552554	0.7105239807472061	-0.42224514210136266	1.0992010593142736	0.6966901059227246	-0.4249070559145138	1.09100480921616	0.7533269331295784	
28	0.4666666666666667	0.5476456295947214	0.6354539987395182	0.7744055408069237	0.556795858736726	0.1738497467814799	0.7761311764506199	0.5944255181254025	-0.2785925086392116	0.7536384379010431	0.5913037859475678	-0.2956530374250117	0.6074281290197528	0.6526477060117598	-0.2963869474534559	0.6266418068932116	0.5724100847860769	-0.3676406124805214	0.8179457760476213	0.3138333648165427	0.5982009863330746	0.8004370014334659	0.3773833806847535	0.1479731295941456	0.7889433924062252	0.4038132261872647	-0.3131533441548139	0.7854039541462603	0.4491874440435281	-0.3112129772627099	0.6105405635843246	0.38333576275977943	-0.3319843041699038	0.6449278532004148	0.4255927699617914	-0.37901549357120856	0.8152116077997091	0.3947281397595305	1.2046555461980522	0.8120116002335482	0.3761231783356426	1.4584547495264348	0.826454719845785	0.408587969204796	1.3448354295501823	0.7098685394312341	0.5865471271686643	1.1488659160949193	0.8173940976775748	0.8462300443718611	1.1374761025953108	0.8334387211436286	1.0982573139770941	1.1408221276521235	0.8488383987043479	1.2404263232590442	1.125174971687537	0.7938569481690724	1.255947526858588	1.1145570447752218	0.7989732484101015	1.2247055341220063	1.0977046332533251	0.8414834697894853	0.20665069804253283	1.1185352870918595	0.8019983086877236	-0.033651348710641474	1.080513188295069	0.790282806090883	-0.2976077867440932	1.11395999985099	0.7139337606681235	-0.38736821198551746	1.0799506246132773	0.7093984828143597	-0.4221204328013475	1.0996408396029835	0.6948522998176412	-0.4254976514018231	1.0916227959147873	0.7509071211527387	
29	0.4833333333333333	0.5480850851470429	0.6348934035249043	0.7756035509646546	0.5578841683852419	0.1731521117945552	0.7790153048071611	0.5944411467882222	-0.2784831551397925	0.7541227996258717	0.5905880645225763	-0.2980353911594372	0.6112141560476039	0.6529930825212925	-0.29710058670916745	0.6274617318673517	0.5720643623424886	-0.3668719191336334	0.8170282521309596	0.3139754047240349	0.5989953729966134	0.7996632227091587	0.3770360426639937	0.14796316258712938	0.788980453912832	0.4038375045833706	-0.31345281852431534	0.7857554501299584	0.44820834299908596	-0.30882809108554876	0.6089046916585037	0.38329304500544037	-0.3322926754478755	0.6440577492901557	0.4252380259151699	-0.37842493479064715	0.8143646367095574	0.3943546222710802	1.2049620520593227	0.8101991822479356	0.3761805310848002	1.4584229169693756	0.8266086410611126	0.40858656136959026	1.3448222659865585	0.7098220987993155	0.5862793507006789	1.1490424498745004	0.8163752555832791	0.8462965483691673	1.1374327208564374	0.8335800348178604	1.098949946405134	1.140783777158617	0.8492215206186541	1.2405069958211086	1.1255075288335168	0.7916322184947815	1.2556590200298912	1.114396329911071	0.7992774738440869	1.223684042369164	1.0975823456842317	0.8414934119670021	0.20673427262445734	1.1179265044431403	0.8018375593276115	-0.03397366951337652	1.0806030962009223	0.7897503468627498	-0.29758926609233777	1.114339406916002	0.7121263899406375	-0.38759344986095967	1.0796151664859037	0.7070957666697902	-0.42210762149098024	1.1001445386535034	0.6933125048403652	-0.42580934210161303	1.0920510846907325	0.7489719639337832	
30	0.5	0.548510861978226	0.6344380962087317	0.7769634506879259	0.5589153810375296	0.17268495516750715	0.7818101835745369	0.5943997042049065	-0.2782498660379143	0.7544029744705263	0.5900237364366758	-0.30059586965805385	0.6151716303111401	0.6531947993817513	-0.2971493270489277	0.627156087385613	0.5717311477053247	-0.3660486369636273	0.8161779126858004	0.31420221311982965	0.5998120898888609	0.7987693054381775	0.37658996916577403	0.14789308111307253	0.7891785078812763	0.40385624963381456	-0.31357847987443455	0.786061050494826	0.44728222926579675	-0.3071247890534622	0.6075208314917968	0.383276478033728	-0.33243666874396044	0.6435194311229794	0.42494690188916323	-0.37773298643223074	0.8134533315669397	0.39413298689351095	1.2051404399965233	0.8091583903328949	0.3762479335093271	1.458393253867802	0.8268394975557953	0.40858888765281387	1.3448214333976514	0.7097815492024963	0.5858088404984333	1.1493553132911176	0.8146274524514928	0.8462031832238562	1.137471294508064	0.8333066745687128	1.099605177423118	1.140751813083733	0.8492669324538544	1.2403796391895587	1.1260584968001695	0.7874214414460773	1.25560730821764	1.1144862029803089	0.7982511104642176	1.222756064452111	1.0973946214125607	0.8416849485832949	0.20678877733753576	1.1174497782401214	0.8017191274950902	-0.03415445557121912	1.080893783446619	0.7886260704827817	-0.2975628747816609	1.1148214118547293	0.7097976209788828	-0.38741711327040707	1.0793050871016363	0.7042003455174726	-0.4220959518885782	1.100586079761762	0.692241107249173	-0.4255150964620279	1.09234885898078	0.7475319011942794	
31	0.5166666666666667	0.5489050446102789	0.6342968777662443	0.7780578313396627	0.5598414103641508	0.17250425788019552	0.7844209529280397	0.5942786023339343	-0.27783908596128104	0.7543884341636683	0.589799735771606	-0.30266047796993684	0.6184699754417922	0.6534078855862493	-0.29679556551256303	0.626269177997957	0.5714152255083815	-0.3651697207954609	0.815404639057631	0.3145132039017089	0.6005644203378817	0.7977792696225465	0.3761202263643833	0.1478309928852718	0.78937192790967	0.40382826028081614	-0.3134956957518755	0.7861065478380571	0.4467109061581104	-0.3064340804235834	0.6067330607984108	0.3833060414976637	-0.3323882204594224	0.6434467858734085	0.4247360240509517	-0.37699940889914196	0.8125240806233702	0.39406519825780767	1.2051866125077124	0.8089067278501955	0.3762813541632297	1.458381580772159	0.82694224150424	0.40857589251650384	1.3448222780626722	0.7097932835857725	0.5851979509790171	1.14976118252029	0.8123982298150669	0.8458512577807312	1.1376367973019677	0.832352087726129	1.1001564381505686	1.140848411453262	0.848335769978894	1.2399814312044255	1.126612421184802	0.782327408864488	1.2558205703554912	1.1147363916507342	0.7961892370249407	1.2222214683526262	1.0971646932923707	0.8417702807695915	0.20680325890278148	1.1171708504020925	0.8016563970553879	-0.03426954813414666	1.081322632364674	0.7868488702231607	-0.2975348462474984	1.1153398387755904	0.7072741254737712	-0.3870192581116174	1.0791861316156273	0.7011340381724122	-0.42165380320068635	1.1009732426979009	0.6912507264904558	-0.42403774171319497	1.0928059173625138	0.7457446605386281	
32	0.5333333333333333	0.5492350889241655	0.634598991846774	0.7786146622620276	0.560622197916471	0.1725854706825699	0.7867525507389385	0.5941051643444007	-0.277321848613273	0.7541688836361227	0.5900491746666947	-0.30383457694687555	0.620589768233736	0.6536934154934697	-0.29651503536454477	0.6256575323072202	0.5711214990776186	-0.36430833825872716	0.814731705046518	0.31489318712686315	0.6011889606048298	0.7967279941120604	0.3756974792367231	0.14785180764297468	0.7894091739662659	0.4037247931687652	-0.31320539304338774	0.7857593673180362	0.44663662306162877	-0.30671202160669775	0.6066340727801952	0.3833756411868115	-0.3321600137318158	0.6438557400177104	0.4245955306615109	-0.37624002097594905	0.8116002436025065	0.3940899883164386	1.205152822345348	0.8091330905987252	0.3762839583689609	1.4583834969341307	0.8269295419217292	0.4085147585055973	1.344802637369816	0.7099341439001908	0.5845319928229851	1.1502021418383561	0.8100065303976633	0.8452469327230654	1.1379215565467655	0.8307274151492117	1.1005445013296673	1.1411695667847623	0.845888804559531	1.2393677384691075	1.1270131254394768	0.7772637027563113	1.256297210600966	1.1150979765825744	0.7934749498884252	1.2223015104619557	1.096988874088005	0.8412362901420318	0.206783860703043	1.1170982503298357	0.8016380874126309	-0.03439844654025466	1.0817143399611404	0.7845671391934671	-0.29751235810073196	1.1158264551693717	0.704898013356218	-0.3866045347320299	1.0795256959464656	0.6980461934075048	-0.42045494393741034	1.101425205587019	0.6897720027386967	-0.42100966053994837	1.0936790642281453	0.7427603821254842	
